<svg xmlns="http://www.w3.org/2000/svg" xmlns:xlink="http://www.w3.org/1999/xlink" width="378" zoomAndPan="magnify" viewBox="0 0 283.5 235.499993" height="314" preserveAspectRatio="xMidYMid meet" version="1.2"><defs><clipPath id="14d2c49c33"><path d="M 14.402344 54 L 172 54 L 172 211 L 14.402344 211 Z M 14.402344 54 "/></clipPath><clipPath id="6efb61d65d"><path d="M 92 7.292969 L 268.894531 7.292969 L 268.894531 211 L 92 211 Z M 92 7.292969 "/></clipPath><clipPath id="612d8c398d"><path d="M 14.402344 54 L 172 54 L 172 211 L 14.402344 211 Z M 14.402344 54 "/></clipPath></defs><g id="b0532a0c6f"><path style=" stroke:none;fill-rule:nonzero;fill:#d3b27d;fill-opacity:1;" d="M 93.1875 210.214844 C 72.113281 210.179688 52.457031 201.972656 37.84375 187.105469 C 23.472656 172.480469 15.554688 153.175781 15.558594 132.746094 C 15.523438 112.042969 23.566406 92.5625 38.203125 77.886719 C 52.863281 63.1875 72.402344 55.074219 93.214844 55.050781 L 93.316406 55.050781 C 113.847656 55.050781 133.226562 62.96875 147.878906 77.347656 C 162.761719 91.953125 170.957031 111.59375 170.964844 132.652344 C 170.96875 153.503906 162.902344 173.03125 148.246094 187.628906 C 133.625 202.195312 114.117188 210.214844 93.320312 210.214844 Z M 93.101562 65.863281 C 75.167969 65.863281 58.433594 72.75 45.988281 85.25 C 33.609375 97.683594 26.570312 114.765625 26.671875 132.125 C 26.539062 149.445312 33.535156 166.523438 45.863281 178.972656 C 58.261719 191.496094 74.941406 198.425781 92.824219 198.496094 L 93.089844 198.496094 C 129.617188 198.496094 159.414062 168.828125 159.511719 132.359375 C 159.558594 114.5625 152.65625 97.816406 140.074219 85.203125 C 127.652344 72.753906 111 65.886719 93.1875 65.863281 Z M 93.101562 65.863281 "/><path style=" stroke:none;fill-rule:nonzero;fill:#353535;fill-opacity:1;" d="M 24.859375 132.234375 C 24.601562 96.386719 53.441406 64.082031 93.09375 64.089844 C 132.316406 64.097656 161.371094 95.875 161.328125 132.289062 C 161.285156 168.894531 131.894531 200.417969 92.917969 200.324219 C 53.511719 200.226562 24.628906 168.105469 24.859375 132.234375 Z M 92.980469 197.84375 C 129.796875 197.734375 158.609375 168.253906 158.777344 132.492188 C 158.941406 97.269531 131.003906 66.722656 93.285156 66.617188 C 54.921875 66.511719 27.421875 97.589844 27.355469 132.0625 C 27.292969 167.253906 55.519531 197.609375 92.980469 197.84375 Z M 92.980469 197.84375 "/><g clip-rule="nonzero" clip-path="url(#14d2c49c33)"><path style=" stroke:none;fill-rule:nonzero;fill:#353535;fill-opacity:1;" d="M 93.449219 54.382812 C 135.761719 54.464844 171.71875 88.367188 171.675781 132.785156 C 171.628906 176.519531 136.3125 211.152344 92.949219 210.945312 C 48.234375 210.734375 14.546875 174.269531 14.839844 132.160156 C 15.136719 89.503906 49.878906 54.320312 93.449219 54.382812 Z M 17.773438 132.554688 C 17.546875 173.839844 51.082031 207.835938 92.828125 208.089844 C 134.175781 208.34375 168.652344 175.140625 168.789062 132.933594 C 168.921875 90.523438 134.511719 57.394531 93.578125 57.253906 C 51.613281 57.105469 17.667969 91.101562 17.773438 132.554688 Z M 17.773438 132.554688 "/></g><path style=" stroke:none;fill-rule:nonzero;fill:#353535;fill-opacity:1;" d="M 19.890625 136.65625 C 19.890625 135.824219 19.859375 134.988281 19.902344 134.15625 C 19.933594 133.554688 20.496094 133.035156 21.027344 133.035156 C 21.605469 133.035156 21.9375 133.402344 22.183594 133.855469 C 22.519531 134.472656 22.382812 135.160156 22.414062 135.820312 C 22.644531 140.652344 23.132812 145.453125 24.195312 150.183594 C 26.460938 160.234375 31.167969 169.027344 37.988281 176.707031 C 41.648438 180.828125 45.5625 184.695312 49.941406 188.074219 C 50.265625 188.328125 50.613281 188.582031 50.859375 188.90625 C 51.183594 189.34375 51.175781 189.890625 50.855469 190.308594 C 50.539062 190.71875 50.03125 190.902344 49.515625 190.667969 C 49.0625 190.464844 48.605469 190.234375 48.222656 189.925781 C 38.21875 181.753906 29.660156 172.441406 24.714844 160.269531 C 22.347656 154.441406 20.90625 148.398438 20.347656 142.136719 C 20.1875 140.3125 20.003906 138.488281 19.832031 136.664062 C 19.851562 136.660156 19.871094 136.65625 19.890625 136.65625 Z M 19.890625 136.65625 "/><path style=" stroke:none;fill-rule:nonzero;fill:#353535;fill-opacity:1;" d="M 20.347656 124.1875 C 20.308594 123.519531 20.652344 122.476562 20.894531 121.429688 C 22.070312 116.414062 23.28125 111.410156 24.496094 106.40625 C 24.59375 106.003906 24.75 105.605469 24.953125 105.25 C 25.207031 104.800781 25.601562 104.476562 26.164062 104.542969 C 26.78125 104.617188 27.296875 105.351562 27.214844 106.03125 C 27.171875 106.359375 27.058594 106.675781 26.976562 106.996094 C 25.476562 112.789062 23.964844 118.578125 22.898438 124.46875 C 22.867188 124.632812 22.839844 124.800781 22.789062 124.957031 C 22.550781 125.660156 21.871094 126.09375 21.261719 125.949219 C 20.714844 125.820312 20.371094 125.316406 20.347656 124.1875 Z M 20.347656 124.1875 "/><path style=" stroke:none;fill-rule:nonzero;fill:#efefef;fill-opacity:1;" d="M 199.242188 79.914062 C 198.550781 79.492188 196.9375 78.265625 196.46875 75.832031 L 196.425781 75.621094 C 196.273438 74.828125 196.113281 74.003906 196.097656 73.222656 C 196.070312 71.75 195.808594 70.316406 195.558594 68.929688 C 195.441406 68.277344 195.324219 67.628906 195.230469 66.972656 C 194.925781 64.851562 194.644531 62.898438 194.71875 60.875 C 194.757812 59.746094 194.710938 58.277344 193.992188 56.890625 C 193.707031 56.347656 193.625 55.71875 193.542969 55.050781 L 193.492188 54.679688 L 187.644531 12.914062 C 187.605469 12.640625 187.566406 12.371094 187.535156 12.097656 C 187.359375 10.5625 187.484375 10.398438 189.003906 10.148438 C 189.332031 10.09375 189.667969 10.074219 190.027344 10.050781 L 190.445312 10.023438 C 192.597656 9.859375 194.753906 9.695312 196.90625 9.53125 C 202.726562 9.085938 208.746094 8.628906 214.664062 8.128906 C 216.160156 8.003906 217.429688 8.226562 218.664062 8.839844 C 219.417969 9.214844 220.167969 9.59375 220.917969 9.972656 L 226.382812 12.726562 C 229.699219 14.394531 233.011719 16.0625 236.332031 17.722656 C 240.226562 19.664062 244.125 21.601562 248.023438 23.535156 L 253.144531 26.078125 L 253.285156 26.152344 C 253.398438 26.214844 253.511719 26.277344 253.632812 26.328125 C 253.816406 26.402344 253.992188 26.484375 254.15625 26.578125 C 255.011719 27.054688 255.667969 27.792969 256.21875 28.898438 C 258.792969 34.0625 261.472656 39.277344 264.0625 44.324219 L 266.210938 48.515625 C 266.460938 49 266.726562 49.480469 266.992188 49.960938 C 267.253906 50.429688 267.511719 50.894531 267.757812 51.371094 C 267.9375 51.726562 267.832031 51.886719 267.605469 52.023438 C 267.132812 52.308594 266.609375 52.554688 266.113281 52.78125 C 254.179688 58.238281 225.347656 71.414062 225.347656 71.414062 C 225.289062 71.441406 225.234375 71.472656 225.179688 71.5 C 225.113281 71.535156 225.039062 71.574219 225 71.582031 C 222.789062 72.15625 220.765625 73.175781 218.808594 74.160156 C 217.464844 74.835938 216.074219 75.539062 214.660156 76.070312 C 214.191406 76.246094 213.726562 76.429688 213.261719 76.613281 C 212.640625 76.859375 212.023438 77.101562 211.394531 77.328125 C 210.183594 77.769531 209.09375 78.351562 207.964844 79.160156 C 204.964844 81.320312 202.273438 81.550781 199.242188 79.914062 Z M 199.242188 79.914062 "/><path style=" stroke:none;fill-rule:nonzero;fill:#d3b27d;fill-opacity:1;" d="M 133.027344 200.667969 C 131.808594 199.992188 130.605469 199.269531 129.441406 198.519531 C 111.609375 187.042969 100.039062 170.996094 95.0625 150.832031 C 91.515625 136.46875 92.167969 121.917969 97.007812 107.582031 C 98.859375 102.089844 101.199219 97.027344 103.957031 92.535156 C 110.738281 81.496094 119.640625 72.625 130.421875 66.171875 C 143.566406 58.300781 158.007812 54.558594 173.339844 55.054688 C 179.011719 55.238281 184.703125 56.0625 190.253906 57.507812 C 190.464844 57.5625 190.675781 57.628906 190.886719 57.695312 C 191.644531 57.933594 192.503906 58.207031 193.484375 57.988281 C 193.5 57.988281 193.515625 57.992188 193.53125 58.003906 C 193.597656 58.039062 193.667969 58.148438 193.730469 58.371094 C 194.15625 59.90625 194.6875 61.933594 195.003906 64.015625 C 195.074219 64.460938 195.175781 64.828125 195.3125 65.144531 C 195.777344 66.195312 195.714844 67.339844 195.113281 68.75 C 195.015625 68.980469 194.929688 69.1875 194.859375 69.371094 C 194.726562 69.695312 194.582031 70.0625 194.5 70.136719 C 194.332031 70.167969 193.460938 69.855469 193.132812 69.734375 C 182.074219 65.742188 170.679688 64.746094 159.261719 66.777344 C 143.160156 69.644531 129.707031 77.484375 119.277344 90.082031 C 111.003906 100.070312 106.082031 111.726562 104.644531 124.722656 C 102.917969 140.324219 106.394531 154.992188 114.980469 168.328125 C 118.902344 174.429688 123.960938 179.890625 130.011719 184.5625 C 132.589844 186.558594 135.359375 188.382812 138.242188 189.992188 C 140.273438 191.125 142.410156 192.175781 144.585938 193.113281 C 153.261719 196.855469 162.378906 198.648438 171.679688 198.4375 C 188.566406 198.054688 203.457031 192.0625 215.941406 180.625 C 220.914062 176.070312 225.199219 170.601562 228.679688 164.371094 C 237.816406 147.378906 239.542969 129.628906 233.816406 111.613281 C 229.96875 99.5 222.804688 89.0625 212.527344 80.597656 C 212.230469 80.351562 211.921875 80.117188 211.613281 79.886719 C 211.257812 79.617188 210.90625 79.351562 210.570312 79.0625 C 211.472656 77.941406 212.300781 76.992188 213.492188 76.8125 C 214.851562 76.605469 216.070312 76.097656 217.246094 75.609375 C 217.761719 75.394531 218.277344 75.179688 218.800781 74.992188 L 218.960938 74.933594 C 219.320312 74.808594 219.691406 74.675781 220.054688 74.480469 C 220.933594 74 221.457031 74.089844 221.96875 74.375 C 222.25 74.535156 222.5625 74.777344 222.925781 75.125 C 228.34375 80.28125 232.570312 85.292969 235.855469 90.449219 C 246.226562 106.738281 250.144531 124.695312 247.503906 143.8125 C 246.109375 153.933594 242.648438 163.605469 237.21875 172.5625 C 227.957031 187.835938 214.804688 198.800781 198.132812 205.15625 C 182.480469 211.121094 166.148438 211.859375 149.597656 207.347656 C 143.628906 205.71875 138.050781 203.472656 133.027344 200.667969 Z M 133.027344 200.667969 "/><g clip-rule="nonzero" clip-path="url(#6efb61d65d)"><path style=" stroke:none;fill-rule:nonzero;fill:#353535;fill-opacity:1;" d="M 192.789062 57.449219 C 193.207031 56.632812 192.886719 55.898438 192.789062 55.179688 C 190.859375 41.308594 188.914062 27.441406 186.972656 13.574219 C 186.867188 12.832031 186.753906 12.085938 186.699219 11.339844 C 186.636719 10.480469 186.878906 10.1875 187.675781 9.804688 C 188.296875 9.507812 188.949219 9.429688 189.617188 9.378906 C 198.179688 8.722656 206.746094 8.074219 215.308594 7.394531 C 216.34375 7.308594 217.296875 7.460938 218.226562 7.878906 C 218.683594 8.082031 219.148438 8.273438 219.597656 8.496094 C 222.960938 10.171875 226.328125 11.832031 229.679688 13.53125 C 232.507812 14.964844 235.332031 16.402344 238.191406 17.78125 C 243.679688 20.429688 249.078125 23.261719 254.519531 26.003906 C 255.535156 26.511719 256.164062 27.28125 256.675781 28.292969 C 260.011719 34.914062 263.40625 41.503906 266.789062 48.101562 C 267.320312 49.136719 267.914062 50.144531 268.441406 51.183594 C 268.738281 51.773438 268.574219 52.367188 267.992188 52.6875 C 267.1875 53.125 266.347656 53.503906 265.515625 53.886719 C 251.929688 60.097656 238.34375 66.308594 224.757812 72.519531 C 224.300781 72.726562 223.84375 72.929688 223.394531 73.152344 C 222.449219 73.625 222.402344 73.871094 223.140625 74.53125 C 231.316406 81.867188 237.691406 90.539062 242.113281 100.570312 C 250.179688 118.863281 251.296875 137.613281 245.183594 156.667969 C 232.664062 195.707031 191.96875 218.367188 152.074219 208.6875 C 144.226562 206.785156 136.789062 203.855469 129.933594 199.621094 C 115.160156 190.484375 104.300781 177.941406 97.839844 161.785156 C 90.828125 144.25 90.292969 126.410156 95.992188 108.429688 C 98.578125 100.261719 102.496094 92.738281 107.683594 85.882812 C 119.542969 70.21875 135.085938 60.269531 154.269531 56.066406 C 166.367188 53.417969 178.445312 53.78125 190.433594 56.878906 C 191.21875 57.082031 192.007812 57.261719 192.789062 57.449219 Z M 138.460938 189.351562 C 143.589844 192.089844 148.355469 194.136719 154.441406 195.703125 C 186.226562 203.886719 220.570312 187.1875 232.519531 154.210938 C 237.53125 140.375 237.71875 126.304688 233.28125 112.257812 C 229.339844 99.78125 222.132812 89.472656 212.078125 81.125 C 209.882812 79.300781 209.867188 79.320312 207.242188 80.515625 C 206.863281 80.691406 206.472656 80.839844 206.109375 81.046875 C 202.316406 83.1875 196.328125 80.664062 195.648438 75.539062 C 195.515625 74.550781 195.308594 73.566406 195.238281 72.570312 C 195.167969 71.609375 194.691406 71.117188 193.828125 70.753906 C 191.210938 69.644531 188.484375 68.871094 185.730469 68.238281 C 150.53125 60.136719 116.933594 81.269531 107.488281 114 C 99.375 142.121094 110.890625 173.757812 138.460938 189.351562 Z M 212.789062 78.003906 C 212.707031 78.519531 212.960938 78.613281 213.136719 78.757812 C 216.21875 81.300781 219.140625 84.007812 221.789062 87.007812 C 244.371094 112.585938 244.828125 150.933594 222.085938 176.882812 C 209.070312 191.734375 192.410156 199.449219 172.621094 200.214844 C 162.816406 200.59375 153.375 198.765625 144.34375 195.019531 C 140.421875 193.394531 136.648438 191.429688 133.09375 189.023438 C 129.351562 186.488281 125.804688 183.742188 122.625 180.5625 C 100.695312 158.628906 97.523438 127.5625 108.59375 103.71875 C 111.753906 96.914062 115.84375 90.769531 120.992188 85.359375 C 140.300781 65.070312 167.585938 60.066406 189.796875 66.761719 C 191.332031 67.226562 192.878906 67.664062 194.605469 68.167969 C 194.285156 65.867188 193.96875 63.816406 193.726562 61.757812 C 193.628906 60.949219 193.164062 60.585938 192.476562 60.394531 C 191.273438 60.058594 190.066406 59.742188 188.855469 59.4375 C 158.960938 51.859375 124.902344 63.28125 106.289062 92.980469 C 101.597656 100.464844 98.425781 108.597656 96.621094 117.25 C 90.515625 146.492188 102.09375 177.933594 129.332031 195.839844 C 136.199219 200.355469 143.6875 203.582031 151.683594 205.65625 C 190.445312 215.699219 230.652344 193.652344 242.757812 154.921875 C 250.773438 129.269531 244.859375 98.035156 221.097656 76.472656 C 220.664062 76.082031 220.1875 75.742188 219.710938 75.402344 C 219.433594 75.203125 219.121094 75.136719 218.773438 75.285156 C 216.71875 76.167969 214.695312 77.109375 212.789062 78.003906 Z M 205.945312 77.386719 C 205.847656 77.484375 205.304688 77.898438 205.355469 78.015625 C 205.355469 78.015625 207.148438 77.882812 207.53125 77.71875 C 225.132812 70.132812 243.152344 61.34375 261.496094 52.949219 C 262.160156 52.648438 262.886719 52.433594 263.410156 51.847656 C 262.953125 51.277344 262.292969 51.125 261.6875 50.925781 C 256.875 49.335938 252.042969 47.789062 247.234375 46.179688 C 246.183594 45.828125 245.394531 45.910156 244.492188 46.648438 C 240.820312 49.644531 237.070312 52.554688 233.355469 55.5 C 226.445312 60.976562 219.539062 66.460938 212.628906 71.941406 Z M 242.820312 44.773438 C 242.335938 44.617188 242.226562 44.585938 242.082031 44.539062 C 236.320312 42.632812 230.550781 40.746094 224.789062 38.839844 C 224.226562 38.652344 223.820312 38.730469 223.519531 39.246094 C 223.3125 39.605469 223.109375 39.96875 222.90625 40.332031 C 216.53125 51.765625 210.15625 63.199219 203.800781 74.640625 C 203.644531 74.917969 203.527344 75.320312 203.210938 76.144531 C 216.167969 65.875 229.855469 55.050781 242.820312 44.773438 Z M 198.277344 73.394531 C 198.652344 72.683594 198.613281 71.726562 198.714844 71.03125 C 200.703125 57.535156 202.648438 44.035156 204.597656 30.535156 C 204.8125 29.050781 205 27.566406 205.226562 26.085938 C 205.304688 25.5625 205.285156 25.152344 204.792969 24.785156 C 202.988281 23.445312 201.222656 22.054688 199.433594 20.691406 C 196.78125 18.675781 194.128906 16.664062 191.472656 14.652344 C 190.957031 14.265625 190.476562 13.800781 189.792969 13.691406 C 189.71875 15.925781 194.609375 51.988281 197.71875 72.085938 C 197.773438 72.445312 197.875 72.886719 198.277344 73.394531 Z M 200.871094 74.382812 C 201.003906 74.445312 201.046875 74.308594 201.3125 73.835938 C 201.679688 73.179688 202.046875 72.527344 202.410156 71.875 C 208.382812 61.160156 214.359375 50.449219 220.332031 39.734375 C 221.632812 37.402344 221.601562 37.433594 219.433594 35.832031 C 216.820312 33.90625 214.261719 31.90625 211.664062 29.953125 C 210.417969 29.015625 209.140625 28.117188 207.667969 27.050781 C 205.390625 42.746094 203.113281 58.933594 200.871094 74.382812 Z M 249.5625 26.316406 C 240.039062 21.59375 230.09375 16.625 220.21875 11.726562 C 220.65625 12.523438 220.820312 12.871094 221.027344 13.1875 C 223.546875 17.101562 226.105469 20.992188 228.578125 24.9375 C 229.226562 25.972656 229.949219 26.390625 231.191406 26.378906 C 236.6875 26.3125 242.183594 26.355469 247.679688 26.355469 C 248.074219 26.355469 248.492188 26.496094 249.5625 26.316406 Z M 246.519531 43.179688 C 250.988281 45 262.398438 48.636719 264.203125 48.820312 C 264.125 48.574219 264.078125 48.332031 263.96875 48.117188 C 261.097656 42.492188 258.21875 36.871094 255.339844 31.246094 C 255.214844 31.007812 254.90625 30.601562 254.410156 30.03125 C 252.007812 34.289062 248.855469 38.757812 246.519531 43.179688 Z M 214.464844 10.046875 C 212.378906 10.050781 210.578125 10.273438 208.773438 10.402344 C 206.949219 10.535156 205.125 10.679688 203.300781 10.816406 C 201.394531 10.960938 199.484375 11.074219 197.578125 11.257812 C 195.796875 11.429688 193.988281 11.398438 192.039062 11.816406 C 192.851562 12.515625 193.453125 13.089844 194.109375 13.59375 C 197.875 16.460938 201.65625 19.3125 205.425781 22.171875 C 206.113281 22.691406 206.226562 22.71875 206.226562 22.71875 C 206.226562 22.71875 209.753906 17.363281 211.238281 15.050781 C 212.253906 13.46875 213.277344 11.890625 214.464844 10.046875 Z M 252.109375 29.042969 C 248.808594 28.800781 233.789062 28.777344 231.738281 29.027344 C 232.003906 29.386719 232.65625 29.96875 232.945312 30.257812 C 235.160156 32.496094 237.4375 34.566406 239.664062 36.792969 C 240.957031 38.082031 244.289062 41.738281 244.289062 41.738281 C 244.289062 41.738281 244.964844 40.804688 245.507812 39.972656 C 247.183594 37.386719 248.445312 35.261719 250.082031 32.648438 C 250.785156 31.523438 251.386719 30.335938 252.109375 29.042969 Z M 226.222656 26.019531 C 224.640625 23.300781 223.070312 20.992188 221.542969 18.664062 C 219.972656 16.269531 218.585938 13.75 216.75 11.46875 C 214.074219 15.195312 209.800781 21.976562 209.113281 23.605469 C 214.691406 24.394531 220.242188 25.175781 226.222656 26.019531 Z M 229.273438 29.976562 C 228.050781 31.988281 226.609375 34.265625 225.464844 36.179688 C 225.253906 36.53125 225.234375 36.324219 225.535156 36.503906 C 225.746094 36.632812 226.496094 36.828125 226.734375 36.90625 C 230.832031 38.25 234.933594 39.589844 239.035156 40.925781 C 239.25 40.996094 240.585938 41.4375 240.585938 41.4375 C 240.585938 41.4375 239.734375 40.425781 239.582031 40.265625 C 238.367188 39.019531 237.144531 37.78125 235.914062 36.554688 C 233.742188 34.394531 231.566406 32.246094 229.273438 29.976562 Z M 226.894531 28.695312 C 221.757812 27.925781 216.8125 27.175781 211.316406 26.539062 C 215.398438 29.640625 219.054688 32.417969 222.835938 35.289062 C 224.390625 33.246094 225.59375 31.113281 226.894531 28.695312 Z M 226.894531 28.695312 "/></g><path style=" stroke:none;fill-rule:nonzero;fill:#353535;fill-opacity:1;" d="M 176.613281 61.085938 C 176.328125 61.382812 175.976562 61.625 175.546875 61.636719 C 174.714844 61.652344 173.882812 61.605469 173.050781 61.605469 C 162.160156 61.613281 151.628906 63.484375 141.558594 67.703125 C 137.308594 69.484375 133.324219 71.726562 129.730469 74.628906 C 129.347656 74.9375 128.949219 75.269531 128.503906 75.457031 C 128.019531 75.660156 127.527344 75.527344 127.175781 75.074219 C 126.890625 74.699219 126.890625 74.3125 127.085938 73.910156 C 127.347656 73.371094 127.789062 73.003906 128.242188 72.625 C 130.757812 70.542969 133.507812 68.828125 136.410156 67.339844 C 144.066406 63.410156 152.238281 61.136719 160.722656 59.917969 C 165.101562 59.292969 169.507812 59.007812 173.933594 59.117188 C 174.601562 59.136719 175.273438 59.132812 175.929688 59.234375 C 176.617188 59.34375 177.03125 60.519531 176.613281 61.085938 Z M 176.613281 61.085938 "/><path style=" stroke:none;fill-rule:nonzero;fill:#353535;fill-opacity:1;" d="M 226.453125 44.5625 C 226.054688 44.339844 225.882812 44.191406 225.644531 43.972656 C 225.292969 43.648438 225.28125 43.25 225.449219 42.835938 C 225.617188 42.425781 225.933594 42.128906 226.371094 42.105469 C 226.777344 42.082031 227.210938 42.132812 227.597656 42.257812 C 230.1875 43.121094 232.773438 44 235.347656 44.902344 C 235.636719 45.003906 235.917969 45.238281 236.113281 45.484375 C 236.445312 45.894531 236.527344 46.398438 236.222656 46.859375 C 235.988281 47.214844 235.609375 47.421875 235.164062 47.378906 C 234.835938 47.347656 234.503906 47.28125 234.191406 47.175781 C 231.601562 46.308594 229.179688 45.484375 226.453125 44.5625 Z M 226.453125 44.5625 "/><path style=" stroke:none;fill-rule:nonzero;fill:#353535;fill-opacity:1;" d="M 198.082031 44.480469 C 197.566406 45.238281 196.394531 45.160156 196.027344 44.492188 C 195.832031 44.136719 195.714844 43.71875 195.664062 43.320312 C 194.902344 37.703125 194.15625 32.085938 193.414062 26.46875 C 193.371094 26.140625 193.34375 25.796875 193.402344 25.476562 C 193.5 24.933594 193.863281 24.617188 194.417969 24.519531 C 194.992188 24.417969 195.421875 24.652344 195.625 25.164062 C 195.808594 25.617188 195.90625 26.121094 195.972656 26.609375 C 196.695312 31.980469 197.40625 37.347656 198.109375 42.71875 C 198.195312 43.371094 198.363281 44.039062 198.082031 44.480469 Z M 198.082031 44.480469 "/><path style=" stroke:none;fill-rule:nonzero;fill:#d3b27d;fill-opacity:1;" d="M 147.902344 77.058594 C 146.472656 75.652344 144.980469 74.328125 143.460938 73.046875 C 142.980469 73.476562 142.449219 73.839844 141.851562 74.109375 C 141.09375 75.851562 139.839844 77.339844 138.152344 78.160156 C 136.925781 78.757812 135.671875 79.3125 134.410156 79.84375 C 136.390625 81.414062 138.289062 83.105469 140.097656 84.917969 C 152.679688 97.527344 159.582031 114.277344 159.535156 132.070312 C 159.4375 168.542969 129.640625 198.210938 93.113281 198.207031 L 92.847656 198.207031 C 74.964844 198.140625 58.285156 191.207031 45.886719 178.683594 C 33.558594 166.238281 26.5625 149.15625 26.695312 131.835938 C 26.59375 114.480469 33.632812 97.394531 46.011719 84.960938 C 58.457031 72.460938 75.191406 65.574219 93.125 65.574219 L 93.210938 65.574219 C 101.316406 65.585938 115.257812 67.9375 122.589844 70.664062 C 124.5625 69.023438 124.167969 69.539062 125.730469 68.347656 C 127.441406 67.050781 128.449219 66.472656 130.296875 65.402344 C 120.300781 60.855469 104.628906 54.761719 93.339844 54.761719 L 93.238281 54.761719 C 72.425781 54.785156 52.886719 62.898438 38.226562 77.597656 C 23.589844 92.273438 15.550781 111.753906 15.582031 132.460938 C 15.578125 152.886719 23.496094 172.191406 37.867188 186.816406 C 52.484375 201.683594 72.136719 209.894531 93.210938 209.925781 L 93.34375 209.925781 C 114.140625 209.925781 133.648438 201.90625 148.269531 187.34375 C 162.925781 172.742188 170.992188 153.21875 170.988281 132.363281 C 170.984375 111.304688 162.785156 91.664062 147.902344 77.058594 Z M 147.902344 77.058594 "/><path style=" stroke:none;fill-rule:nonzero;fill:#353535;fill-opacity:1;" d="M 134.15625 77.347656 C 133.378906 77.804688 132.667969 78.648438 131.917969 79.140625 C 148.292969 91.324219 158.898438 110.925781 158.800781 132.207031 C 158.632812 167.964844 129.820312 197.445312 93.003906 197.554688 C 55.542969 197.320312 27.316406 166.964844 27.378906 131.773438 C 27.445312 97.300781 54.945312 66.222656 93.308594 66.328125 C 101.46875 66.351562 113.539062 69.863281 120.597656 72.472656 C 120.898438 71.691406 122.105469 71.371094 122.589844 70.664062 C 115.121094 67.851562 101.785156 63.804688 93.117188 63.800781 C 53.46875 63.792969 24.625 96.101562 24.882812 131.949219 C 24.652344 167.816406 53.535156 199.941406 92.941406 200.035156 C 131.917969 200.128906 161.308594 168.605469 161.351562 132 C 161.378906 110.398438 150.660156 90.023438 134.15625 77.347656 Z M 134.15625 77.347656 "/><g clip-rule="nonzero" clip-path="url(#612d8c398d)"><path style=" stroke:none;fill-rule:nonzero;fill:#353535;fill-opacity:1;" d="M 143.28125 72.0625 C 142.664062 72.734375 142.179688 72.667969 141.328125 73.035156 C 141.230469 73.078125 140.609375 73.78125 140.507812 73.828125 C 157.175781 87.589844 168.886719 108.894531 168.8125 132.644531 C 168.675781 174.851562 134.199219 208.054688 92.851562 207.804688 C 51.105469 207.550781 17.570312 173.550781 17.796875 132.265625 C 17.691406 90.8125 51.636719 56.816406 93.601562 56.964844 C 104.054688 57 120.394531 61.917969 129.53125 65.863281 C 130.699219 65.5 131.566406 64.667969 132.589844 64.089844 C 122.554688 59.460938 105.074219 54.117188 93.476562 54.09375 C 49.902344 54.03125 15.160156 89.214844 14.863281 131.875 C 14.570312 173.980469 48.257812 210.449219 92.972656 210.65625 C 136.335938 210.863281 171.65625 176.230469 171.699219 132.496094 C 171.722656 108.03125 160.148438 86.253906 143.28125 72.0625 Z M 143.28125 72.0625 "/></g><path style=" stroke:none;fill-rule:nonzero;fill:#353535;fill-opacity:1;" d="M 19.914062 136.367188 C 19.914062 135.535156 19.882812 134.699219 19.925781 133.867188 C 19.957031 133.265625 20.519531 132.746094 21.054688 132.746094 C 21.628906 132.746094 21.960938 133.113281 22.207031 133.566406 C 22.542969 134.1875 22.40625 134.871094 22.4375 135.53125 C 22.667969 140.363281 23.15625 145.164062 24.21875 149.894531 C 26.484375 159.945312 31.191406 168.738281 38.011719 176.417969 C 41.675781 180.539062 45.585938 184.410156 49.964844 187.785156 C 50.289062 188.039062 50.640625 188.292969 50.882812 188.617188 C 51.207031 189.054688 51.199219 189.605469 50.878906 190.019531 C 50.5625 190.429688 50.054688 190.613281 49.539062 190.378906 C 49.085938 190.175781 48.628906 189.949219 48.246094 189.636719 C 38.242188 181.46875 29.683594 172.152344 24.738281 159.980469 C 22.371094 154.152344 20.929688 148.109375 20.371094 141.847656 C 20.210938 140.023438 20.027344 138.199219 19.855469 136.375 C 19.875 136.371094 19.894531 136.371094 19.914062 136.367188 Z M 19.914062 136.367188 "/><path style=" stroke:none;fill-rule:nonzero;fill:#353535;fill-opacity:1;" d="M 20.371094 123.902344 C 20.332031 123.230469 20.675781 122.1875 20.921875 121.140625 C 22.09375 116.125 23.308594 111.121094 24.519531 106.117188 C 24.617188 105.714844 24.773438 105.316406 24.976562 104.960938 C 25.230469 104.511719 25.628906 104.191406 26.1875 104.257812 C 26.804688 104.328125 27.320312 105.0625 27.238281 105.742188 C 27.195312 106.070312 27.082031 106.386719 27 106.710938 C 25.5 112.5 23.988281 118.289062 22.921875 124.183594 C 22.890625 124.347656 22.863281 124.511719 22.8125 124.667969 C 22.574219 125.371094 21.894531 125.808594 21.285156 125.660156 C 20.738281 125.53125 20.398438 125.027344 20.371094 123.902344 Z M 20.371094 123.902344 "/></g></svg>